<?xml version="1.0" encoding="UTF-8" standalone="no"?>
<!-- Created with Inkscape (http://www.inkscape.org/) -->

<svg
   xmlns:dc="http://purl.org/dc/elements/1.1/"
   xmlns:cc="http://creativecommons.org/ns#"
   xmlns:rdf="http://www.w3.org/1999/02/22-rdf-syntax-ns#"
   xmlns:svg="http://www.w3.org/2000/svg"
   xmlns="http://www.w3.org/2000/svg"
   xmlns:sodipodi="http://sodipodi.sourceforge.net/DTD/sodipodi-0.dtd"
   xmlns:inkscape="http://www.inkscape.org/namespaces/inkscape"
   width="16px"
   height="16px"
   viewBox="0 0 16 16"
   version="1.1"
   id="SVGRoot"
   sodipodi:docname="Logo.svg"
   inkscape:version="0.92.4 (5da689c313, 2019-01-14)">
  <defs
     id="defs817" />
  <sodipodi:namedview
     id="base"
     pagecolor="#ffffff"
     bordercolor="#666666"
     borderopacity="1.0"
     inkscape:pageopacity="0.0"
     inkscape:pageshadow="2"
     inkscape:zoom="8"
     inkscape:cx="-23.451171"
     inkscape:cy="-5.2864716"
     inkscape:document-units="px"
     inkscape:current-layer="layer1"
     showgrid="true"
     inkscape:window-width="1366"
     inkscape:window-height="715"
     inkscape:window-x="-8"
     inkscape:window-y="312"
     inkscape:window-maximized="1"
     inkscape:grid-bbox="true"
     inkscape:object-nodes="false"
     inkscape:snap-nodes="true">
    <inkscape:grid
       type="xygrid"
       id="grid1373" />
  </sodipodi:namedview>
  <metadata
     id="metadata820">
    <rdf:RDF>
      <cc:Work
         rdf:about="">
        <dc:format>image/svg+xml</dc:format>
        <dc:type
           rdf:resource="http://purl.org/dc/dcmitype/StillImage" />
      </cc:Work>
    </rdf:RDF>
  </metadata>
  <g
     inkscape:label="Layer 1"
     inkscape:groupmode="layer"
     id="layer1">
    <path
       style="fill:#fc6f46;fill-opacity:1;stroke:#333333;stroke-width:0;stroke-miterlimit:4;stroke-dasharray:none;stroke-opacity:1"
       d="m 1.4999982,3.2623494 c -0.83100008,0 -1.500000075,0.669 -1.500000075,1.5 0,0.1767598 0.036139135,0.3427787 0.091796875,0.5 h 15.816407 c 0.05566,-0.1572213 0.0918,-0.3232402 0.0918,-0.5 0,-0.831 -0.669,-1.5 -1.499999,-1.5 z"
       id="rect1377"
       inkscape:connector-curvature="0" />
    <path
       style="fill:#fc6f46;fill-opacity:1;stroke:#333333;stroke-width:0;stroke-miterlimit:4;stroke-dasharray:none;stroke-opacity:1"
       d="M 4.3067575,0.78505242 V 3.7396464 H 5.2646923 V 1.7574139 h 5.4706157 v 1.9822325 h 0.957934 V 0.78505242 Z"
       id="rect1387"
       inkscape:connector-curvature="0" />
    <rect
       style="fill:#fc6f46;fill-opacity:1;stroke:#fc6f46;stroke-width:0;stroke-miterlimit:4;stroke-dasharray:none;stroke-opacity:1"
       id="rect1442"
       width="15.136504"
       height="8.5515728"
       x="0.43174791"
       y="6.1860781" />
    <path
       style="fill:#46d3fc;fill-opacity:1;stroke:#fc6f46;stroke-width:0;stroke-miterlimit:4;stroke-dasharray:none;stroke-opacity:1"
       d="M 7.9999995,6.8260235 A 3.635536,3.635536 0 0 0 4.3641592,10.461864 3.635536,3.635536 0 0 0 7.9999995,14.097705 3.635536,3.635536 0 0 0 11.635841,10.461864 3.635536,3.635536 0 0 0 7.9999995,6.8260235 Z m 0,0.7991923 A 2.836648,2.836648 0 0 1 10.836648,10.461864 2.836648,2.836648 0 0 1 7.9999995,13.298512 2.836648,2.836648 0 0 1 5.1633516,10.461864 2.836648,2.836648 0 0 1 7.9999995,7.6252158 Z"
       id="path1448"
       inkscape:connector-curvature="0" />
    <path
       style="fill:#46d3fc;fill-opacity:1;stroke:#fc6f46;stroke-width:0;stroke-linejoin:round;stroke-miterlimit:4;stroke-dasharray:none;stroke-opacity:1"
       d="m 8.0000001,7.5046541 a 1.5413837,2.9573154 0 0 0 -1.5410297,2.9572099 1.5413837,2.9573154 0 0 0 1.5410297,2.95721 1.5413837,2.9573154 0 0 0 1.5410294,-2.95721 1.5413837,2.9573154 0 0 0 -1.5410294,-2.9572099 z m 0,0.7303277 A 1.0172615,2.2270426 0 0 1 9.0172613,10.461864 1.0172615,2.2270426 0 0 1 8.0000001,12.688746 1.0172615,2.2270426 0 0 1 6.9827388,10.461864 1.0172615,2.2270426 0 0 1 8.0000001,8.2349818 Z"
       id="path1452"
       inkscape:connector-curvature="0" />
    <path
       style="fill:#46d3fc;stroke:#46d3fc;stroke-width:0.43579015;stroke-linecap:butt;stroke-linejoin:miter;stroke-miterlimit:4;stroke-dasharray:none;stroke-opacity:1;fill-opacity:1"
       d="M 5.0947323,9.0092304 H 10.905268"
       id="path1484"
       inkscape:connector-curvature="0" />
    <path
       style="fill:#46d3fc;stroke:#46d3fc;stroke-width:0.363;stroke-linecap:butt;stroke-linejoin:miter;stroke-miterlimit:4;stroke-dasharray:none;stroke-opacity:1;fill-opacity:1"
       d="M 8,7.5565965 V 13.367132"
       id="path1486"
       inkscape:connector-curvature="0" />
    <path
       style="fill:#46d3fc;stroke:#46d3fc;stroke-width:0.43579015;stroke-linecap:butt;stroke-linejoin:miter;stroke-miterlimit:4;stroke-dasharray:none;stroke-opacity:1;fill-opacity:1"
       d="M 5.0947323,11.914498 H 10.905268"
       id="path1488"
       inkscape:connector-curvature="0" />
    <path
       style="fill:#46d3fc;stroke:#46d3fc;stroke-width:0.43579015;stroke-linecap:butt;stroke-linejoin:miter;stroke-miterlimit:4;stroke-dasharray:none;stroke-opacity:0.95871562;fill-opacity:1"
       d="M 5.0947323,10.461864 H 10.905268"
       id="path1490"
       inkscape:connector-curvature="0" />
  </g>
</svg>
