<?xml version="1.0" encoding="UTF-8" standalone="no"?>
<!-- Created with Inkscape (http://www.inkscape.org/) -->

<svg
   xmlns:dc="http://purl.org/dc/elements/1.1/"
   xmlns:cc="http://creativecommons.org/ns#"
   xmlns:rdf="http://www.w3.org/1999/02/22-rdf-syntax-ns#"
   xmlns:svg="http://www.w3.org/2000/svg"
   xmlns="http://www.w3.org/2000/svg"
   xmlns:sodipodi="http://sodipodi.sourceforge.net/DTD/sodipodi-0.dtd"
   xmlns:inkscape="http://www.inkscape.org/namespaces/inkscape"
   width="550.33368mm"
   height="550.33368mm"
   viewBox="0 0 550.33368 550.33368"
   version="1.1"
   id="svg8"
   inkscape:version="0.92.4 (5da689c313, 2019-01-14)"
   sodipodi:docname="Reload.svg">
  <defs
     id="defs2" />
  <sodipodi:namedview
     id="base"
     pagecolor="#ffffff"
     bordercolor="#666666"
     borderopacity="1.0"
     inkscape:pageopacity="0.0"
     inkscape:pageshadow="2"
     inkscape:zoom="0.175"
     inkscape:cx="44.658782"
     inkscape:cy="777.57447"
     inkscape:document-units="px"
     inkscape:current-layer="layer1"
     showgrid="false"
     showborder="false"
     inkscape:window-width="1920"
     inkscape:window-height="1027"
     inkscape:window-x="1358"
     inkscape:window-y="-8"
     inkscape:window-maximized="1" />
  <metadata
     id="metadata5">
    <rdf:RDF>
      <cc:Work
         rdf:about="">
        <dc:format>image/svg+xml</dc:format>
        <dc:type
           rdf:resource="http://purl.org/dc/dcmitype/StillImage" />
        <dc:title></dc:title>
      </cc:Work>
    </rdf:RDF>
  </metadata>
  <g
     inkscape:label="Layer 1"
     inkscape:groupmode="layer"
     id="layer1"
     transform="translate(335.26506,152.90851)">
    <path
       style="fill:#fc6f46;fill-opacity:1;stroke:#333333;stroke-width:0;stroke-miterlimit:4;stroke-dasharray:none;stroke-opacity:1"
       d="m -284.84169,-152.9085 c -27.93445,0 -50.42336,22.48891 -50.42336,50.42336 v 449.48697 c 0,27.93444 22.48891,50.42335 50.42336,50.42335 h 449.48697 c 27.93444,0 50.42335,-22.48891 50.42335,-50.42335 v -449.48697 c 0,-27.93445 -22.48891,-50.42336 -50.42335,-50.42336 z m 21.47241,26.28998 h 406.54215 c 25.26554,0 45.6058,20.34023 45.6058,45.605788 V 325.52942 c 0,25.26554 -20.34026,45.6058 -45.6058,45.6058 h -406.54215 c -25.26557,0 -45.60579,-20.34026 -45.60579,-45.6058 V -81.012732 c 0,-25.265558 20.34022,-45.605788 45.60579,-45.605788 z"
       id="rect823"
       inkscape:connector-curvature="0" />
    <path
       style="fill:#fc6f46;fill-opacity:1;stroke-width:0.9217335"
       d="M -76.604776,301.70675 C -140.08649,294.58436 -194.65514,247.87076 -215.32067,182.9447 c -7.00726,-22.01918 -9.52901,-40.78985 -8.73492,-64.99555 2.16763,-65.625566 37.80916,-124.1160069 93.08498,-152.732939 44.972023,-23.282686 97.740033,-23.266468 142.140111,0.04403 4.678663,2.455193 9.003206,4.25027 9.604134,3.99548 0.643853,-0.231619 7.822809,-6.589652 16.036221,-14.064107 8.209121,-7.469816 15.029664,-13.444518 15.14556,-13.268487 0.107312,0.231625 4.335271,25.743667 9.378785,56.8158028 C 66.377716,29.81107 70.659334,55.72498 70.863218,56.323724 71.077835,56.90278 48.103031,48.332753 19.835757,37.24499 L -31.559779,17.076473 -19.314772,5.9933369 c 6.738988,-6.09165884 12.3684046,-11.4421393 12.5207907,-11.8891718 0.4292304,-1.2391798 -9.3036777,-5.2346681 -20.1300577,-8.2573391 -67.041145,-18.75793 -136.694191,21.7342863 -159.165721,92.528505 -5.53712,17.429582 -6.68534,25.566479 -6.65314,46.765719 0.03,16.0051 0.32193,20.69777 1.96374,28.57293 4.2709,20.91898 12.76869,41.49167 23.61438,57.15977 11.0968,16.03174 30.39305,33.73463 46.08911,42.28613 20.38115,11.1063 46.592393,17.1609 67.904982,15.69126 49.6904006,-3.42802 91.864888,-33.78792 113.171045,-81.46971 9.089049,-20.35265 11.947754,-33.46479 12.608779,-57.93222 0.321922,-13.64487 0.107305,-19.68674 -0.858475,-26.29956 -0.751162,-4.725101 -1.309168,-8.651099 -1.212589,-8.732167 1.094551,-0.810678 29.537808,-6.913928 30.017478,-6.392777 0.32193,0.347433 1.28771,5.385219 2.07106,11.083132 1.81352,13.287012 1.83498,39.039942 0.0397,51.804652 -5.590791,39.73483 -22.819207,75.2738 -49.987635,103.14723 -34.068387,34.95181 -82.663161,52.86665 -129.241609,47.64473 z"
       id="path13"
       inkscape:connector-curvature="0" />
  </g>
</svg>
