<?xml version="1.0" encoding="UTF-8" standalone="no"?>
<!-- Created with Inkscape (http://www.inkscape.org/) -->

<svg
   xmlns:dc="http://purl.org/dc/elements/1.1/"
   xmlns:cc="http://creativecommons.org/ns#"
   xmlns:rdf="http://www.w3.org/1999/02/22-rdf-syntax-ns#"
   xmlns:svg="http://www.w3.org/2000/svg"
   xmlns="http://www.w3.org/2000/svg"
   xmlns:sodipodi="http://sodipodi.sourceforge.net/DTD/sodipodi-0.dtd"
   xmlns:inkscape="http://www.inkscape.org/namespaces/inkscape"
   width="351.67368"
   height="339.46152"
   viewBox="0 0 351.67368 339.46152"
   version="1.1"
   id="SVGRoot"
   sodipodi:docname="Shield.svg"
   inkscape:version="0.92.4 (5da689c313, 2019-01-14)">
  <defs
     id="defs4934" />
  <sodipodi:namedview
     id="base"
     pagecolor="#ffffff"
     bordercolor="#666666"
     borderopacity="1.0"
     inkscape:pageopacity="0.0"
     inkscape:pageshadow="2"
     inkscape:zoom="2.8284271"
     inkscape:cx="155.02602"
     inkscape:cy="122.73626"
     inkscape:document-units="px"
     inkscape:current-layer="layer1"
     showgrid="true"
     inkscape:window-width="1920"
     inkscape:window-height="1027"
     inkscape:window-x="1358"
     inkscape:window-y="-8"
     inkscape:window-maximized="1"
     inkscape:grid-bbox="true"
     showborder="false"
     showguides="false" />
  <metadata
     id="metadata4937">
    <rdf:RDF>
      <cc:Work
         rdf:about="">
        <dc:format>image/svg+xml</dc:format>
        <dc:type
           rdf:resource="http://purl.org/dc/dcmitype/StillImage" />
        <dc:title />
      </cc:Work>
    </rdf:RDF>
  </metadata>
  <g
     inkscape:label="Layer 1"
     inkscape:groupmode="layer"
     id="layer1"
     transform="translate(167.83684,161.73077)">
    <g
       id="g943"
       style="fill-opacity:1;fill:#fc6f46">
      <path
         inkscape:connector-curvature="0"
         style="fill:#fc6f46;fill-opacity:1;stroke:#cc00ff;stroke-width:0;stroke-miterlimit:4;stroke-dasharray:none"
         d="m 5.235868,-134.46765 c -48.314089,0.31484 -96.711304,4.50808 -144.123168,13.91102 -1.74008,1.82267 -0.0939,5.10144 -0.4864,7.43052 3.27867,59.115408 17.098,118.3219962 45.042632,170.790244 18.089352,33.438004 42.963455,64.868216 76.993869,83.074896 8.1893001,4.03064 16.6527525,8.19461 25.7149942,9.68039 C 33.288667,144.3342 54.999719,128.99225 72.510037,110.63404 102.65466,79.80001 121.663,39.974246 135.11684,-0.53817025 147.4122,-38.826088 154.52541,-78.863317 155.7029,-119.06846 c 0.0106,-3.01707 -4.40041,-1.92834 -6.25902,-2.8563 -47.54959,-8.69507 -95.877222,-12.75961 -144.208012,-12.54289 z m -3.3737537,28.55473 c 2.3633019,-0.002 4.7280557,0.008 7.0931485,0.0331 39.4936662,-0.19883 78.9211002,2.95814 117.6775372,10.541408 -0.91799,34.248763 -7.33413,68.421858 -18.28446,100.9764502 C 95.274152,43.242026 75.431487,80.286373 43.270203,104.92972 32.700443,112.81767 20.702042,119.34014 7.9410702,122.41317 -23.981394,113.60068 -48.499297,88.587644 -65.693539,61.350423 -93.932056,16.079442 -106.98608,-37.561428 -110.12352,-90.263284 c -1.46433,-5.01136 1.92146,-6.048267 6.38115,-6.099651 34.911736,-6.378495 70.154988,-9.514885 105.6044843,-9.549985 z"
         id="path938" />
      <path
         transform="translate(-167.83684,-161.73077)"
         id="path922"
         d="M 173.22852 35.292969 C 127.63754 35.590059 81.968119 39.546962 37.228516 48.419922 C 35.586506 50.139862 37.139901 53.233831 36.769531 55.431641 C 39.863401 111.21515 52.903835 167.0847 79.273438 216.5957 C 96.343226 248.14905 119.81536 277.80777 151.92773 294.98828 C 159.65546 298.79174 167.64189 302.72102 176.19336 304.12305 C 199.70019 298.38081 220.18755 283.90358 236.71094 266.58008 C 265.15653 237.48394 283.09351 199.90286 295.78906 161.67383 C 307.39142 125.54392 314.10371 87.763294 315.21484 49.824219 C 315.22484 46.977199 311.06244 48.004566 309.30859 47.128906 C 264.43902 38.923916 218.83526 35.088459 173.22852 35.292969 z M 170.04492 62.238281 C 172.27502 62.236073 174.50649 62.24576 176.73828 62.269531 C 214.00598 62.081908 251.21118 65.060943 287.7832 72.216797 C 286.91695 104.53521 280.86244 136.78222 270.5293 167.50195 C 258.19201 202.98646 239.46773 237.94289 209.11914 261.19727 C 199.14512 268.64064 187.82298 274.79548 175.78125 277.69531 C 145.65802 269.37952 122.52201 245.77628 106.29688 220.07422 C 79.64996 177.35483 67.331694 126.7373 64.371094 77.005859 C 62.989294 72.276952 66.184248 71.298488 70.392578 71.25 C 103.3366 65.231017 136.59345 62.271399 170.04492 62.238281 z "
         style="fill:#fc6f46;fill-opacity:1;stroke:#cc00ff;stroke-width:0;stroke-miterlimit:4;stroke-dasharray:none" />
    </g>
    <path
       style="fill:#fc6f46;fill-opacity:1;stroke:#cc00ff;stroke-width:0;stroke-miterlimit:4;stroke-dasharray:none"
       d="m 6.055352,-79.789106 c -21.183494,-0.08471 -42.387332,0.770627 -63.378145,3.76411 -8.318015,1.170093 -16.708978,2.245554 -24.926216,3.826672 -1.871405,2.44777 -0.223755,6.070312 -0.430236,8.948884 3.256786,38.620738 13.186121,77.321128 33.591793,110.575539 13.255416,21.424264 32.143256,41.189153 56.9615563,48.418987 C 25.36968,91.3052 40.030771,79.373631 51.769122,66.044234 73.908576,39.821599 86.525197,6.8595441 93.747134,-26.357937 c 2.877786,-14.154005 5.039045,-28.544191 5.403813,-42.991748 -0.214897,-4.211819 -5.581287,-3.474352 -8.431955,-4.315338 -26.086041,-4.197816 -52.494741,-6.534501 -78.930661,-6.13301 -1.9110006,0.0032 -3.8219859,0.0056 -5.732979,0.009 z"
       id="path926"
       inkscape:connector-curvature="0" />
  </g>
</svg>
